<svg xmlns="http://www.w3.org/2000/svg" viewBox="0 0 900 440" role="img" aria-label="Kidults original mobility sculpture"><defs><linearGradient id="body" x1="0" y1="0" x2="1" y2="1"><stop offset="0" stop-color="#fffdf9"/><stop offset="0.42" stop-color="#f7f2ea"/><stop offset="0.76" stop-color="#ded7cd"/><stop offset="1" stop-color="#bfb7ad"/></linearGradient><linearGradient id="glass" x1="0" y1="0" x2="1" y2="1"><stop offset="0" stop-color="#30352f"/><stop offset="0.45" stop-color="#111411"/><stop offset="1" stop-color="#030403"/></linearGradient><linearGradient id="rim" x1="0" y1="0" x2="1" y2="1"><stop offset="0" stop-color="#fff"/><stop offset="1" stop-color="#d7d1c8"/></linearGradient><radialGradient id="shine" cx="35%" cy="20%" r="70%"><stop offset="0" stop-color="#ffffff" stop-opacity=".95"/><stop offset="1" stop-color="#ffffff" stop-opacity="0"/></radialGradient><filter id="shadow" x="-30%" y="-30%" width="160%" height="180%"><feGaussianBlur stdDeviation="18"/></filter></defs><ellipse cx="520" cy="365" rx="300" ry="32" fill="#6d675f" opacity=".16" filter="url(#shadow)"/><path d="M188 314c19-95 106-155 241-181 106-20 237-10 314 32 63 35 91 88 75 139-10 33-37 55-77 66H291c-67-8-109-28-103-56z" fill="url(#body)" stroke="#b7afa4" stroke-width="2"/><path d="M382 145c47-40 109-62 183-64 86-2 159 24 202 78-72-8-139-8-204-1-69 8-123 23-181 48-27-20-27-39 0-61z" fill="url(#glass)"/><path d="M225 296c65-14 123-21 184-23 106-3 245 7 363 23" fill="none" stroke="#fff" stroke-width="6" opacity=".86"/><path d="M239 321c130 27 415 30 550-3-18 24-43 40-79 49H302c-31-5-51-18-63-46z" fill="#0d100e"/><path d="M210 292c69-16 137-25 205-27" fill="none" stroke="#c8c0b5" stroke-width="3" opacity=".7"/><path d="M708 190c42 22 70 50 82 85" fill="none" stroke="#c7bfb4" stroke-width="3" opacity=".6"/><ellipse cx="351" cy="340" rx="58" ry="68" fill="#171a17"/><ellipse cx="351" cy="340" rx="44" ry="53" fill="url(#rim)" stroke="#9e978e" stroke-width="2"/><ellipse cx="351" cy="340" rx="6" ry="7" fill="#777169"/><ellipse cx="706" cy="340" rx="58" ry="68" fill="#171a17"/><ellipse cx="706" cy="340" rx="44" ry="53" fill="url(#rim)" stroke="#9e978e" stroke-width="2"/><ellipse cx="706" cy="340" rx="6" ry="7" fill="#777169"/><path d="M260 230c77-72 189-105 331-105 75 0 140 11 190 34-111-20-231-13-351 22-72 20-126 46-170 77z" fill="url(#shine)" opacity=".85"/><path d="M198 303c8-8 26-15 52-20" stroke="#d4ccc0" stroke-width="5" stroke-linecap="round"/><path d="M793 300c10 3 19 8 25 15" stroke="#d4ccc0" stroke-width="5" stroke-linecap="round"/></svg>