<svg xmlns="http://www.w3.org/2000/svg" viewBox="0 0 200 150"><defs><linearGradient id="c" x1="0" y1="0" x2="1" y2="1"><stop stop-color="#eee9e1"/><stop offset="1" stop-color="#c5bcb0"/></linearGradient></defs><ellipse cx="103" cy="127" rx="57" ry="8" fill="#777" opacity=".16"/><path d="M45 96c18-35 58-56 108-56 8 0 13 6 11 14-8 43-35 69-77 74-26 3-49-3-51-15-1-5 2-11 9-17z" fill="url(#c)" stroke="#b2aa9f"/><path d="M65 94c21-23 49-35 83-36-10 31-31 48-63 52-19 2-31-3-20-16z" fill="#faf8f3" stroke="#d0c9bf"/><ellipse cx="110" cy="126" rx="23" ry="5" fill="#393a36" opacity=".65"/></svg>